<svg width="13" height="11" viewBox="0 0 13 11" fill="none" xmlns="http://www.w3.org/2000/svg">
<path d="M13 1.30339C12.5124 1.5275 11.9964 1.67515 11.4684 1.74167C12.0233 1.39803 12.4405 0.852092 12.642 0.206254C12.1174 0.530693 11.5444 0.758335 10.9476 0.879429C10.6963 0.600858 10.3941 0.379247 10.0593 0.228066C9.72447 0.0768859 9.3641 -0.000706784 9.00006 4.85099e-06C7.52619 4.85099e-06 6.33344 1.24323 6.33344 2.77578C6.33239 2.98895 6.35549 3.20149 6.40223 3.40885C5.34535 3.35644 4.31046 3.07128 3.36375 2.57161C2.41704 2.07193 1.57936 1.36874 0.904312 0.507034C0.667489 0.929307 0.542244 1.41111 0.541667 1.90208C0.541667 2.86458 1.01644 3.71536 1.73333 4.21379C1.30859 4.20313 0.892556 4.08423 0.520542 3.86718V3.90156C0.520542 5.24791 1.44138 6.36795 2.66013 6.6229C2.43094 6.68752 2.19477 6.72026 1.95758 6.7203C1.78928 6.72061 1.62136 6.70334 1.45627 6.66873C1.79508 7.77159 2.78119 8.57368 3.94929 8.59659C3.00012 9.37029 1.83479 9.78847 0.636458 9.78539C0.423751 9.78506 0.211241 9.77167 0 9.74529C1.21907 10.5686 2.63614 11.0041 4.08254 11C8.99438 11 11.6778 6.76899 11.6778 3.09947C11.6778 2.97916 11.6748 2.85885 11.6694 2.7414C12.1902 2.34955 12.6408 1.86258 13 1.30339V1.30339Z" fill="white"/>
</svg>
