<svg width="192" height="32" viewBox="0 0 579 104" fill="none" xmlns="http://www.w3.org/2000/svg">
<path d="M150.476 66.8063V46.4722H162.739V34.7102H150.476V19.958H137.778C137.778 34.7102 137.778 34.7102 128.841 34.7102V46.4722H136.019V67.6037C136.019 81.4589 143.826 84.5489 154.394 84.5489C157.385 84.5489 162.739 84.5489 162.739 84.5489V73.385C162.739 73.385 158.895 73.385 157.156 73.385C152.569 73.385 150.476 71.2918 150.476 66.8063Z" fill="white"/>
<path d="M187.757 84.5489L195.434 45.4754L203.011 84.5489H221.156L232.323 34.7102H219.162L211.585 73.5844L204.008 34.7102H186.76L179.182 73.5844L171.605 34.7102H158.444L169.611 84.5489H187.757Z" fill="white"/>
<path d="M240.663 26.0383C245.747 26.0383 249.337 22.3503 249.337 17.6654C249.337 12.9806 245.747 9.39221 240.663 9.39221C235.777 9.39221 232.088 12.9806 232.088 17.6654C232.088 22.3503 235.777 26.0383 240.663 26.0383ZM247.941 84.5489V34.7102H233.484V84.5489H247.941Z" fill="white"/>
<path d="M282.003 33.7135C276.121 33.7135 271.036 36.3051 267.347 40.6909V9.79092H252.891V84.5489H267.048V78.1695C270.737 82.8544 275.922 85.5457 282.003 85.5457C295.563 85.5457 305.234 75.1792 305.234 59.6296C305.234 44.0799 295.563 33.7135 282.003 33.7135ZM279.212 46.5718C285.991 46.5718 290.976 51.7551 290.976 59.6296C290.976 67.5041 285.991 72.6873 279.212 72.6873C272.432 72.6873 267.347 67.5041 267.347 59.6296C267.347 51.7551 272.432 46.5718 279.212 46.5718Z" fill="white"/>
<path d="M336.363 33.7135C330.481 33.7135 325.396 36.3051 321.707 40.6909V9.79092H307.251V84.5489H321.408V78.1695C325.097 82.8544 330.282 85.5457 336.363 85.5457C349.923 85.5457 359.594 75.1792 359.594 59.6296C359.594 44.0799 349.923 33.7135 336.363 33.7135ZM333.572 46.5718C340.351 46.5718 345.337 51.7551 345.337 59.6296C345.337 67.5041 340.351 72.6873 333.572 72.6873C326.792 72.6873 321.707 67.5041 321.707 59.6296C321.707 51.7551 326.792 46.5718 333.572 46.5718Z" fill="white"/>
<path d="M387.533 85.5457C402.389 85.5457 413.455 74.9799 413.455 59.6296C413.455 44.2793 402.389 33.7135 387.533 33.7135C372.678 33.7135 361.611 44.2793 361.611 59.6296C361.611 74.9799 372.678 85.5457 387.533 85.5457ZM387.533 72.6873C380.754 72.6873 375.669 67.4044 375.669 59.6296C375.669 51.8547 380.754 46.5718 387.533 46.5718C394.313 46.5718 399.398 51.8547 399.398 59.6296C399.398 67.4044 394.313 72.6873 387.533 72.6873Z" fill="white"/>
<path d="M448.857 57.0379V84.5489H463.314V53.7486C463.314 40.3918 455.537 33.7135 445.168 33.7135C438.887 33.7135 433.603 36.7038 430.612 41.9867V34.7102H416.454V84.5489H430.911V57.0379C430.911 49.5622 434.201 45.6747 439.884 45.6747C445.567 45.6747 448.857 49.5622 448.857 57.0379Z" fill="white"/>
<path d="M474.476 26.0383C479.561 26.0383 483.15 22.3503 483.15 17.6654C483.15 12.9806 479.561 9.39221 474.476 9.39221C469.591 9.39221 465.902 12.9806 465.902 17.6654C465.902 22.3503 469.591 26.0383 474.476 26.0383ZM481.754 84.5489V34.7102H467.298V84.5489H481.754Z" fill="white"/>
<path d="M528.08 84.5489V72.787H500.363L526.086 49.4625V34.7102H486.704V46.4722H511.929L486.206 69.7966V84.5489H528.08Z" fill="white"/>
<path d="M578.801 63.6167C578.9 62.3208 579 61.025 579 59.6296C579 44.3789 568.432 33.7135 553.776 33.7135C539.12 33.7135 528.551 44.3789 528.551 59.6296C528.551 74.8802 539.12 85.5457 553.776 85.5457C566.039 85.5457 574.713 79.7644 577.804 68.7999H563.148C561.752 72.0892 558.761 73.7837 554.175 73.7837C547.594 73.7837 543.507 70.1954 542.41 63.6167H578.801ZM553.776 45.5751C559.857 45.5751 563.845 48.8644 565.042 55.1441H542.51C543.706 48.8644 547.594 45.5751 553.776 45.5751Z" fill="white"/>
<path fill-rule="evenodd" clip-rule="evenodd" d="M0 16.9244C0 7.57729 7.57729 0 16.9244 0H86.8783C96.2254 0 103.803 7.57729 103.803 16.9244V86.8783C103.803 96.2254 96.2254 103.803 86.8783 103.803H16.9244C7.57729 103.803 0 96.2254 0 86.8783V16.9244ZM18.8048 18.8048V84.9979H84.9979V18.8048H18.8048Z" fill="white"/>
</svg>
