<svg width="192" height="32" viewBox="0 0 790 142" fill="none" xmlns="http://www.w3.org/2000/svg">
<path d="M205.312 91.1522V63.4079H222.044V47.3596H205.312V27.2314H187.987C187.987 47.3596 187.987 47.3596 175.793 47.3596V63.4079H185.587V92.2402C185.587 111.144 196.239 115.361 210.659 115.361C214.74 115.361 222.044 115.361 222.044 115.361V100.128C222.044 100.128 216.799 100.128 214.426 100.128C208.169 100.128 205.312 97.2723 205.312 91.1522Z" fill="#1BAAA0"/>
<path d="M256.179 115.361L266.654 62.0478L276.992 115.361H301.75L316.986 47.3596H299.03L288.691 100.4L278.353 47.3596H254.819L244.48 100.4L234.142 47.3596H216.185L231.421 115.361H256.179Z" fill="#1BAAA0"/>
<path d="M328.365 35.5275C335.303 35.5275 340.2 30.4954 340.2 24.1033C340.2 17.7112 335.303 12.8152 328.365 12.8152C321.7 12.8152 316.666 17.7112 316.666 24.1033C316.666 30.4954 321.7 35.5275 328.365 35.5275ZM338.296 115.361V47.3596H318.571V115.361H338.296Z" fill="#1BAAA0"/>
<path d="M384.771 45.9996C376.745 45.9996 369.808 49.5357 364.775 55.5198V13.3592H345.05V115.361H364.366V106.656C369.4 113.049 376.473 116.721 384.771 116.721C403.272 116.721 416.467 102.576 416.467 81.3601C416.467 60.1438 403.272 45.9996 384.771 45.9996ZM380.963 63.5439C390.213 63.5439 397.015 70.616 397.015 81.3601C397.015 92.1042 390.213 99.1763 380.963 99.1763C371.712 99.1763 364.775 92.1042 364.775 81.3601C364.775 70.616 371.712 63.5439 380.963 63.5439Z" fill="#1BAAA0"/>
<path d="M458.942 45.9996C450.916 45.9996 443.978 49.5357 438.944 55.5198V13.3592H419.22V115.361H438.536V106.656C443.57 113.049 450.643 116.721 458.942 116.721C477.442 116.721 490.637 102.576 490.637 81.3601C490.637 60.1438 477.442 45.9996 458.942 45.9996ZM455.133 63.5439C464.383 63.5439 471.185 70.616 471.185 81.3601C471.185 92.1042 464.383 99.1763 455.133 99.1763C445.882 99.1763 438.944 92.1042 438.944 81.3601C438.944 70.616 445.882 63.5439 455.133 63.5439Z" fill="#1BAAA0"/>
<path d="M528.759 116.721C549.028 116.721 564.128 102.304 564.128 81.3601C564.128 60.4158 549.028 45.9996 528.759 45.9996C508.49 45.9996 493.39 60.4158 493.39 81.3601C493.39 102.304 508.49 116.721 528.759 116.721ZM528.759 99.1763C519.508 99.1763 512.571 91.9682 512.571 81.3601C512.571 70.752 519.508 63.5439 528.759 63.5439C538.009 63.5439 544.947 70.752 544.947 81.3601C544.947 91.9682 538.009 99.1763 528.759 99.1763Z" fill="#1BAAA0"/>
<path d="M612.43 77.824V115.361H632.155V73.336C632.155 55.1118 621.544 45.9996 607.397 45.9996C598.827 45.9996 591.617 50.0797 587.536 57.2878V47.3596H568.219V115.361H587.944V77.824C587.944 67.6239 592.433 62.3198 600.187 62.3198C607.941 62.3198 612.43 67.6239 612.43 77.824Z" fill="#1BAAA0"/>
<path d="M647.386 35.5275C654.323 35.5275 659.221 30.4954 659.221 24.1033C659.221 17.7112 654.323 12.8152 647.386 12.8152C640.72 12.8152 635.687 17.7112 635.687 24.1033C635.687 30.4954 640.72 35.5275 647.386 35.5275ZM657.316 115.361V47.3596H637.591V115.361H657.316Z" fill="#1BAAA0"/>
<path d="M720.524 115.361V99.3123H682.707L717.803 67.4879V47.3596H664.07V63.4079H698.486L663.39 95.2323V115.361H720.524Z" fill="#1BAAA0"/>
<path d="M789.728 86.8002C789.864 85.0321 790 83.2641 790 81.3601C790 60.5518 775.58 45.9996 755.584 45.9996C735.587 45.9996 721.167 60.5518 721.167 81.3601C721.167 102.168 735.587 116.721 755.584 116.721C772.316 116.721 784.151 108.832 788.368 93.8723H768.371C766.466 98.3603 762.385 100.672 756.128 100.672C747.149 100.672 741.572 95.7763 740.076 86.8002H789.728ZM755.584 62.1838C763.882 62.1838 769.323 66.6719 770.955 75.24H740.212C741.844 66.6719 747.149 62.1838 755.584 62.1838Z" fill="#1BAAA0"/>
<path fill-rule="evenodd" clip-rule="evenodd" d="M0 23.0919C0 10.3386 10.3386 0 23.092 0H118.539C131.292 0 141.631 10.3386 141.631 23.092V118.539C141.631 131.292 131.292 141.631 118.539 141.631H23.0919C10.3386 141.631 0 131.292 0 118.539V23.0919ZM25.6577 25.6577V115.973H115.973V25.6577H25.6577Z" fill="#1BAAA0"/>
</svg>
