<svg width="242" height="40" viewBox="0 0 242 40" fill="none" xmlns="http://www.w3.org/2000/svg">
<path d="M41.78 23.7121V18.5866H44.8711V15.6218H41.78V11.9033H38.5793C38.5793 15.6218 38.5793 15.6218 36.3265 15.6218V18.5866H38.136V23.9131C38.136 27.4055 40.1039 28.1844 42.7678 28.1844C43.5217 28.1844 44.8711 28.1844 44.8711 28.1844V25.3704C44.8711 25.3704 43.9022 25.3704 43.4638 25.3704C42.3077 25.3704 41.78 24.8427 41.78 23.7121Z" fill="#EEF0FF"/>
<path d="M51.1772 28.1847L53.1123 18.3356L55.0222 28.1847H59.5961L62.4108 15.6221H59.0935L57.1835 25.4209L55.2736 15.6221H50.9259L49.0159 25.4209L47.106 15.6221H43.7887L46.6033 28.1847H51.1772Z" fill="#EEF0FF"/>
<path d="M64.513 13.4361C65.7946 13.4361 66.6994 12.5065 66.6994 11.3256C66.6994 10.1447 65.7946 9.24023 64.513 9.24023C63.2815 9.24023 62.3517 10.1447 62.3517 11.3256C62.3517 12.5065 63.2815 13.4361 64.513 13.4361ZM66.3475 28.1846V15.622H62.7035V28.1846H66.3475Z" fill="#EEF0FF"/>
<path d="M74.9335 15.3709C73.4508 15.3709 72.1691 16.0241 71.2392 17.1296V9.34082H67.5952V28.1847H71.1638V26.5767C72.0937 27.7576 73.4005 28.4359 74.9335 28.4359C78.3513 28.4359 80.789 25.8229 80.789 21.9034C80.789 17.9839 78.3513 15.3709 74.9335 15.3709ZM74.2298 18.612C75.9388 18.612 77.1953 19.9185 77.1953 21.9034C77.1953 23.8883 75.9388 25.1948 74.2298 25.1948C72.5209 25.1948 71.2392 23.8883 71.2392 21.9034C71.2392 19.9185 72.5209 18.612 74.2298 18.612Z" fill="#EEF0FF"/>
<path d="M88.6358 15.3709C87.153 15.3709 85.8713 16.0241 84.9415 17.1296V9.34082H81.2975V28.1847H84.8661V26.5767C85.796 27.7576 87.1028 28.4359 88.6358 28.4359C92.0536 28.4359 94.4913 25.8229 94.4913 21.9034C94.4913 17.9839 92.0536 15.3709 88.6358 15.3709ZM87.9321 18.612C89.641 18.612 90.8976 19.9185 90.8976 21.9034C90.8976 23.8883 89.641 25.1948 87.9321 25.1948C86.2232 25.1948 84.9415 23.8883 84.9415 21.9034C84.9415 19.9185 86.2232 18.612 87.9321 18.612Z" fill="#EEF0FF"/>
<path d="M101.534 28.4356C105.278 28.4356 108.068 25.7724 108.068 21.9031C108.068 18.0338 105.278 15.3706 101.534 15.3706C97.7894 15.3706 94.9998 18.0338 94.9998 21.9031C94.9998 25.7724 97.7894 28.4356 101.534 28.4356ZM101.534 25.1945C99.825 25.1945 98.5433 23.8629 98.5433 21.9031C98.5433 19.9433 99.825 18.6117 101.534 18.6117C103.243 18.6117 104.524 19.9433 104.524 21.9031C104.524 23.8629 103.243 25.1945 101.534 25.1945Z" fill="#EEF0FF"/>
<path d="M116.991 21.2499V28.1844H120.635V20.4207C120.635 17.054 118.675 15.3706 116.062 15.3706C114.478 15.3706 113.146 16.1243 112.392 17.456V15.6218H108.824V28.1844H112.468V21.2499C112.468 19.3655 113.297 18.3856 114.73 18.3856C116.162 18.3856 116.991 19.3655 116.991 21.2499Z" fill="#EEF0FF"/>
<path d="M123.449 13.4361C124.731 13.4361 125.636 12.5065 125.636 11.3256C125.636 10.1447 124.731 9.24023 123.449 9.24023C122.218 9.24023 121.288 10.1447 121.288 11.3256C121.288 12.5065 122.218 13.4361 123.449 13.4361ZM125.284 28.1846V15.622H121.64V28.1846H125.284Z" fill="#EEF0FF"/>
<path d="M136.961 28.1847V25.2199H129.974L136.458 19.3406V15.6221H126.531V18.5869H132.89L126.406 24.4662V28.1847H136.961Z" fill="#EEF0FF"/>
<path d="M149.746 22.9081C149.771 22.5815 149.796 22.2549 149.796 21.9031C149.796 18.059 147.132 15.3706 143.438 15.3706C139.744 15.3706 137.08 18.059 137.08 21.9031C137.08 25.7473 139.744 28.4356 143.438 28.4356C146.529 28.4356 148.715 26.9784 149.494 24.2146H145.8C145.448 25.0438 144.694 25.4709 143.538 25.4709C141.88 25.4709 140.849 24.5664 140.573 22.9081H149.746ZM143.438 18.3605C144.971 18.3605 145.976 19.1896 146.278 20.7725H140.598C140.9 19.1896 141.88 18.3605 143.438 18.3605Z" fill="#EEF0FF"/>
<path fill-rule="evenodd" clip-rule="evenodd" d="M3.26526 11.343C3.26526 9.02315 5.14584 7.14258 7.46565 7.14258H24.8272C27.1471 7.14258 29.0276 9.02316 29.0276 11.343V28.7046C29.0276 31.0244 27.1471 32.905 24.8272 32.905H7.46565C5.14583 32.905 3.26526 31.0244 3.26526 28.7046V11.343ZM7.93236 11.8097V28.2379H24.3605V11.8097H7.93236Z" fill="#EEF0FF"/>
<path d="M158.009 28H160.185V23.6H162.457C163.268 23.6 163.982 23.456 164.601 23.168C165.22 22.8693 165.705 22.4373 166.057 21.872C166.42 21.3067 166.601 20.6293 166.601 19.84C166.601 19.0293 166.425 18.3467 166.073 17.792C165.721 17.2373 165.23 16.816 164.601 16.528C163.982 16.2293 163.268 16.08 162.457 16.08H158.009V28ZM160.185 21.68V18H162.489C163.076 18 163.545 18.1653 163.897 18.496C164.249 18.8267 164.425 19.2747 164.425 19.84C164.425 20.3947 164.249 20.8427 163.897 21.184C163.545 21.5147 163.076 21.68 162.489 21.68H160.185ZM167.408 28H169.504V23.152C169.504 22.4907 169.685 21.9787 170.048 21.616C170.421 21.2427 170.901 21.056 171.488 21.056H172.24V19.2H171.728C171.195 19.2 170.725 19.296 170.32 19.488C169.915 19.68 169.6 20.0267 169.376 20.528V19.296H167.408V28ZM176.72 28.192C177.606 28.192 178.379 27.9947 179.04 27.6C179.712 27.1947 180.182 26.6827 180.448 26.064L178.752 25.232C178.56 25.5627 178.294 25.8347 177.952 26.048C177.622 26.2507 177.216 26.352 176.736 26.352C176.107 26.352 175.579 26.16 175.152 25.776C174.726 25.392 174.48 24.88 174.416 24.24H180.688C180.731 24.1227 180.758 23.9893 180.768 23.84C180.79 23.68 180.8 23.52 180.8 23.36C180.8 22.5813 180.635 21.872 180.304 21.232C179.974 20.592 179.494 20.08 178.864 19.696C178.235 19.3013 177.467 19.104 176.56 19.104C175.75 19.104 175.014 19.3013 174.352 19.696C173.702 20.0907 173.184 20.6293 172.8 21.312C172.427 21.984 172.24 22.7573 172.24 23.632C172.24 24.4747 172.427 25.2427 172.8 25.936C173.174 26.6293 173.696 27.1787 174.368 27.584C175.04 27.9893 175.824 28.192 176.72 28.192ZM176.56 20.832C177.115 20.832 177.574 21.0027 177.936 21.344C178.31 21.6747 178.518 22.1067 178.56 22.64H174.464C174.582 22.064 174.827 21.6213 175.2 21.312C175.584 20.992 176.038 20.832 176.56 20.832ZM181.589 28H183.685V22.896C183.685 22.3307 183.84 21.8773 184.149 21.536C184.459 21.1947 184.864 21.024 185.365 21.024C185.877 21.024 186.283 21.1947 186.581 21.536C186.891 21.8667 187.045 22.32 187.045 22.896V28H189.141V22.896C189.141 22.3307 189.296 21.8773 189.605 21.536C189.915 21.1947 190.32 21.024 190.821 21.024C191.333 21.024 191.739 21.1947 192.037 21.536C192.347 21.8667 192.501 22.32 192.501 22.896V28H194.597V22.4C194.597 21.7493 194.453 21.1787 194.165 20.688C193.888 20.1867 193.509 19.7973 193.029 19.52C192.549 19.2427 192 19.104 191.381 19.104C190.805 19.104 190.283 19.2213 189.813 19.456C189.355 19.6907 188.976 20.0427 188.677 20.512C188.421 20.0853 188.053 19.744 187.573 19.488C187.104 19.232 186.576 19.104 185.989 19.104C185.445 19.104 184.96 19.2107 184.533 19.424C184.107 19.6373 183.781 19.9573 183.557 20.384V19.296H181.589V28ZM195.57 18.32H197.666V16.08H195.57V18.32ZM195.57 28H197.666V19.296H195.57V28ZM201.906 28.192C202.45 28.192 202.93 28.0907 203.346 27.888C203.772 27.6747 204.108 27.3653 204.354 26.96V28H206.338V19.296H204.242V24.4C204.242 24.976 204.076 25.4347 203.746 25.776C203.415 26.1067 202.994 26.272 202.482 26.272C201.959 26.272 201.532 26.1067 201.202 25.776C200.882 25.4453 200.722 25.0027 200.722 24.448V19.296H198.626V24.624C198.626 25.6907 198.914 26.5547 199.49 27.216C200.076 27.8667 200.882 28.192 201.906 28.192ZM207.486 28H209.582V22.896C209.582 22.3307 209.737 21.8773 210.046 21.536C210.355 21.1947 210.761 21.024 211.262 21.024C211.774 21.024 212.179 21.1947 212.478 21.536C212.787 21.8667 212.942 22.32 212.942 22.896V28H215.038V22.896C215.038 22.3307 215.193 21.8773 215.502 21.536C215.811 21.1947 216.217 21.024 216.718 21.024C217.23 21.024 217.635 21.1947 217.934 21.536C218.243 21.8667 218.398 22.32 218.398 22.896V28H220.494V22.4C220.494 21.7493 220.35 21.1787 220.062 20.688C219.785 20.1867 219.406 19.7973 218.926 19.52C218.446 19.2427 217.897 19.104 217.278 19.104C216.702 19.104 216.179 19.2213 215.71 19.456C215.251 19.6907 214.873 20.0427 214.574 20.512C214.318 20.0853 213.95 19.744 213.47 19.488C213.001 19.232 212.473 19.104 211.886 19.104C211.342 19.104 210.857 19.2107 210.43 19.424C210.003 19.6373 209.678 19.9573 209.454 20.384V19.296H207.486V28Z" fill="#EEF0FF"/>
</svg>
