<svg width="242" height="40" viewBox="0 0 242 40" fill="none" xmlns="http://www.w3.org/2000/svg">
<path d="M41.7799 23.7121V18.5866H44.871V15.6218H41.7799V11.9033H38.5792C38.5792 15.6218 38.5792 15.6218 36.3264 15.6218V18.5866H38.1359V23.9131C38.1359 27.4055 40.1038 28.1844 42.7677 28.1844C43.5216 28.1844 44.871 28.1844 44.871 28.1844V25.3704C44.871 25.3704 43.9021 25.3704 43.4637 25.3704C42.3076 25.3704 41.7799 24.8427 41.7799 23.7121Z" fill="#EEF0FF"/>
<path d="M51.1773 28.1847L53.1124 18.3356L55.0223 28.1847H59.5962L62.4109 15.6221H59.0936L57.1836 25.4209L55.2737 15.6221H50.926L49.016 25.4209L47.1061 15.6221H43.7888L46.6034 28.1847H51.1773Z" fill="#EEF0FF"/>
<path d="M64.5131 13.4361C65.7947 13.4361 66.6995 12.5065 66.6995 11.3256C66.6995 10.1447 65.7947 9.24023 64.5131 9.24023C63.2816 9.24023 62.3518 10.1447 62.3518 11.3256C62.3518 12.5065 63.2816 13.4361 64.5131 13.4361ZM66.3476 28.1846V15.622H62.7036V28.1846H66.3476Z" fill="#EEF0FF"/>
<path d="M74.9335 15.3709C73.4508 15.3709 72.1691 16.0241 71.2392 17.1296V9.34082H67.5952V28.1847H71.1638V26.5767C72.0937 27.7576 73.4005 28.4359 74.9335 28.4359C78.3513 28.4359 80.789 25.8229 80.789 21.9034C80.789 17.9839 78.3513 15.3709 74.9335 15.3709ZM74.2298 18.612C75.9388 18.612 77.1953 19.9185 77.1953 21.9034C77.1953 23.8883 75.9388 25.1948 74.2298 25.1948C72.5209 25.1948 71.2392 23.8883 71.2392 21.9034C71.2392 19.9185 72.5209 18.612 74.2298 18.612Z" fill="#EEF0FF"/>
<path d="M88.6359 15.3709C87.1531 15.3709 85.8714 16.0241 84.9416 17.1296V9.34082H81.2976V28.1847H84.8662V26.5767C85.7961 27.7576 87.1029 28.4359 88.6359 28.4359C92.0537 28.4359 94.4914 25.8229 94.4914 21.9034C94.4914 17.9839 92.0537 15.3709 88.6359 15.3709ZM87.9322 18.612C89.6411 18.612 90.8977 19.9185 90.8977 21.9034C90.8977 23.8883 89.6411 25.1948 87.9322 25.1948C86.2233 25.1948 84.9416 23.8883 84.9416 21.9034C84.9416 19.9185 86.2233 18.612 87.9322 18.612Z" fill="#EEF0FF"/>
<path d="M101.534 28.4356C105.278 28.4356 108.068 25.7724 108.068 21.9031C108.068 18.0338 105.278 15.3706 101.534 15.3706C97.7894 15.3706 94.9998 18.0338 94.9998 21.9031C94.9998 25.7724 97.7894 28.4356 101.534 28.4356ZM101.534 25.1945C99.825 25.1945 98.5433 23.8629 98.5433 21.9031C98.5433 19.9433 99.825 18.6117 101.534 18.6117C103.243 18.6117 104.524 19.9433 104.524 21.9031C104.524 23.8629 103.243 25.1945 101.534 25.1945Z" fill="#EEF0FF"/>
<path d="M116.991 21.2499V28.1844H120.635V20.4207C120.635 17.054 118.675 15.3706 116.062 15.3706C114.478 15.3706 113.146 16.1243 112.392 17.456V15.6218H108.824V28.1844H112.468V21.2499C112.468 19.3655 113.297 18.3856 114.73 18.3856C116.162 18.3856 116.991 19.3655 116.991 21.2499Z" fill="#EEF0FF"/>
<path d="M123.449 13.4361C124.731 13.4361 125.636 12.5065 125.636 11.3256C125.636 10.1447 124.731 9.24023 123.449 9.24023C122.218 9.24023 121.288 10.1447 121.288 11.3256C121.288 12.5065 122.218 13.4361 123.449 13.4361ZM125.284 28.1846V15.622H121.64V28.1846H125.284Z" fill="#EEF0FF"/>
<path d="M136.961 28.1847V25.2199H129.974L136.458 19.3406V15.6221H126.531V18.5869H132.89L126.406 24.4662V28.1847H136.961Z" fill="#EEF0FF"/>
<path d="M149.746 22.9081C149.771 22.5815 149.796 22.2549 149.796 21.9031C149.796 18.059 147.132 15.3706 143.438 15.3706C139.744 15.3706 137.08 18.059 137.08 21.9031C137.08 25.7473 139.744 28.4356 143.438 28.4356C146.529 28.4356 148.715 26.9784 149.494 24.2146H145.8C145.448 25.0438 144.694 25.4709 143.538 25.4709C141.88 25.4709 140.849 24.5664 140.573 22.9081H149.746ZM143.438 18.3605C144.971 18.3605 145.976 19.1896 146.278 20.7725H140.598C140.9 19.1896 141.88 18.3605 143.438 18.3605Z" fill="#EEF0FF"/>
<path fill-rule="evenodd" clip-rule="evenodd" d="M3.26526 11.343C3.26526 9.02315 5.14584 7.14258 7.46565 7.14258H24.8272C27.1471 7.14258 29.0276 9.02316 29.0276 11.343V28.7046C29.0276 31.0244 27.1471 32.905 24.8272 32.905H7.46565C5.14583 32.905 3.26526 31.0244 3.26526 28.7046V11.343ZM7.93236 11.8097V28.2379H24.3605V11.8097H7.93236Z" fill="#EEF0FF"/>
<path d="M162.367 27.7596C163.014 27.7596 163.641 27.6519 164.248 27.4364C164.855 27.2111 165.399 26.8829 165.879 26.4519C166.369 26.0111 166.756 25.4723 167.04 24.8355C167.324 24.189 167.466 23.4396 167.466 22.5874V21.4853H162.323V23.1751H165.468V23.2192C165.468 23.7776 165.326 24.2625 165.042 24.6739C164.758 25.0755 164.38 25.389 163.91 25.6143C163.44 25.8298 162.926 25.9376 162.367 25.9376C161.682 25.9376 161.074 25.7759 160.545 25.4527C160.016 25.1294 159.6 24.6837 159.296 24.1155C159.002 23.5376 158.855 22.8666 158.855 22.1025C158.855 21.3384 159.002 20.6723 159.296 20.1041C159.59 19.5262 159.997 19.0804 160.516 18.767C161.035 18.4437 161.638 18.2821 162.323 18.2821C163.019 18.2821 163.611 18.4584 164.101 18.8111C164.591 19.1637 164.944 19.6241 165.159 20.1923L166.937 19.34C166.751 18.8208 166.442 18.3457 166.011 17.9147C165.58 17.4739 165.051 17.1213 164.424 16.8568C163.807 16.5923 163.107 16.46 162.323 16.46C161.54 16.46 160.815 16.6021 160.149 16.8862C159.482 17.1604 158.904 17.5523 158.415 18.0617C157.925 18.5613 157.543 19.1588 157.269 19.8543C156.994 20.54 156.857 21.2894 156.857 22.1025C156.857 22.9155 156.994 23.6698 157.269 24.3653C157.553 25.0511 157.944 25.6486 158.444 26.158C158.944 26.6674 159.527 27.0641 160.193 27.3482C160.859 27.6225 161.584 27.7596 162.367 27.7596ZM170.855 27.7596C171.354 27.7596 171.795 27.6666 172.177 27.4804C172.569 27.2845 172.878 27.0004 173.103 26.6282V27.5833H174.925V19.5898H173V24.2772C173 24.8062 172.848 25.2274 172.545 25.5408C172.241 25.8445 171.854 25.9964 171.384 25.9964C170.904 25.9964 170.512 25.8445 170.208 25.5408C169.914 25.2372 169.767 24.8306 169.767 24.3213V19.5898H167.843V24.4829C167.843 25.4625 168.107 26.2559 168.636 26.8633C169.175 27.4608 169.914 27.7596 170.855 27.7596ZM175.833 18.6935H177.758V16.6364H175.833V18.6935ZM175.833 27.5833H177.758V19.5898H175.833V27.5833ZM182.371 27.7596C182.89 27.7596 183.37 27.6715 183.811 27.4951C184.252 27.309 184.619 27.0445 184.913 26.7017V27.5833H186.735V16.46H184.81V20.398C184.212 19.7417 183.394 19.4135 182.356 19.4135C181.602 19.4135 180.916 19.5996 180.299 19.9719C179.692 20.3343 179.212 20.8339 178.859 21.4706C178.506 22.0976 178.33 22.8029 178.33 23.5866C178.33 24.3702 178.506 25.0804 178.859 25.7172C179.212 26.3441 179.692 26.8437 180.299 27.2159C180.906 27.5784 181.597 27.7596 182.371 27.7596ZM182.576 25.9964C182.145 25.9964 181.759 25.8935 181.416 25.6878C181.073 25.4821 180.803 25.198 180.607 24.8355C180.421 24.4633 180.328 24.047 180.328 23.5866C180.328 23.1262 180.421 22.7147 180.607 22.3523C180.803 21.9898 181.073 21.7057 181.416 21.5C181.759 21.2845 182.145 21.1768 182.576 21.1768C183.007 21.1768 183.39 21.2796 183.723 21.4853C184.065 21.6911 184.33 21.9751 184.516 22.3376C184.712 22.7 184.81 23.1164 184.81 23.5866C184.81 24.0568 184.712 24.4731 184.516 24.8355C184.33 25.198 184.065 25.4821 183.723 25.6878C183.39 25.8935 183.007 25.9964 182.576 25.9964ZM191.435 27.7596C192.248 27.7596 192.958 27.5784 193.566 27.2159C194.183 26.8437 194.614 26.3735 194.859 25.8053L193.301 25.0413C193.125 25.3449 192.88 25.5947 192.566 25.7906C192.263 25.9768 191.891 26.0698 191.45 26.0698C190.872 26.0698 190.387 25.8935 189.995 25.5408C189.603 25.1882 189.378 24.718 189.319 24.1302H195.079C195.118 24.0225 195.143 23.9 195.153 23.7629C195.172 23.6159 195.182 23.469 195.182 23.3221C195.182 22.607 195.03 21.9555 194.726 21.3678C194.423 20.78 193.982 20.3098 193.404 19.9572C192.826 19.5947 192.121 19.4135 191.288 19.4135C190.544 19.4135 189.868 19.5947 189.26 19.9572C188.663 20.3196 188.188 20.8143 187.835 21.4413C187.492 22.0584 187.321 22.7686 187.321 23.5719C187.321 24.3457 187.492 25.0511 187.835 25.6878C188.178 26.3245 188.658 26.829 189.275 27.2013C189.892 27.5735 190.612 27.7596 191.435 27.7596ZM191.288 21.0004C191.797 21.0004 192.219 21.1572 192.552 21.4706C192.895 21.7743 193.086 22.1711 193.125 22.6608H189.363C189.471 22.1319 189.696 21.7253 190.039 21.4413C190.392 21.1474 190.808 21.0004 191.288 21.0004Z" fill="#EEF0FF"/>
</svg>
