<svg width="242" height="28" viewBox="0 0 242 28" fill="none" xmlns="http://www.w3.org/2000/svg">
<g clip-path="url(#clip0_203_250)">
<path d="M39.4836 17.8504V12.6339H42.6296V9.61654H39.4836V5.83203H36.2261C36.2261 9.61654 36.2261 9.61654 33.9333 9.61654V12.6339H35.7749V18.0549C35.7749 21.6093 37.7777 22.402 40.4889 22.402C41.2562 22.402 42.6296 22.402 42.6296 22.402V19.5381C42.6296 19.5381 41.6434 19.5381 41.1972 19.5381C40.0207 19.5381 39.4836 19.0011 39.4836 17.8504Z" fill="white"/>
<path d="M49.0476 22.4022L51.017 12.3784L52.9609 22.4022H57.6159L60.4805 9.6167H57.1044L55.1605 19.5894L53.2167 9.6167H48.7918L46.848 19.5894L44.9041 9.6167H41.528L44.3926 22.4022H49.0476Z" fill="white"/>
<path d="M62.62 7.39193C63.9243 7.39193 64.8451 6.44581 64.8451 5.24397C64.8451 4.04213 63.9243 3.12158 62.62 3.12158C61.3666 3.12158 60.4203 4.04213 60.4203 5.24397C60.4203 6.44581 61.3666 7.39193 62.62 7.39193ZM64.487 22.4021V9.61661H60.7783V22.4021H64.487Z" fill="white"/>
<path d="M73.2253 9.36116C71.7163 9.36116 70.4119 10.026 69.4655 11.1512V3.22412H65.7568V22.4023H69.3889V20.7659C70.3352 21.9677 71.6652 22.6581 73.2253 22.6581C76.7038 22.6581 79.1848 19.9987 79.1848 16.0096C79.1848 12.0205 76.7038 9.36116 73.2253 9.36116ZM72.5092 12.6598C74.2484 12.6598 75.5273 13.9896 75.5273 16.0096C75.5273 18.0297 74.2484 19.3594 72.5092 19.3594C70.77 19.3594 69.4655 18.0297 69.4655 16.0096C69.4655 13.9896 70.77 12.6598 72.5092 12.6598Z" fill="white"/>
<path d="M87.1709 9.36116C85.6618 9.36116 84.3574 10.026 83.4111 11.1512V3.22412H79.7024V22.4023H83.3343V20.7659C84.2806 21.9677 85.6106 22.6581 87.1709 22.6581C90.6493 22.6581 93.1303 19.9987 93.1303 16.0096C93.1303 12.0205 90.6493 9.36116 87.1709 9.36116ZM86.4547 12.6598C88.194 12.6598 89.4728 13.9896 89.4728 16.0096C89.4728 18.0297 88.194 19.3594 86.4547 19.3594C84.7154 19.3594 83.4111 18.0297 83.4111 16.0096C83.4111 13.9896 84.7154 12.6598 86.4547 12.6598Z" fill="white"/>
<path d="M100.298 22.6583C104.109 22.6583 106.948 19.9477 106.948 16.0098C106.948 12.0718 104.109 9.36133 100.298 9.36133C96.4868 9.36133 93.6478 12.0718 93.6478 16.0098C93.6478 19.9477 96.4868 22.6583 100.298 22.6583ZM100.298 19.3596C98.5586 19.3596 97.2541 18.0043 97.2541 16.0098C97.2541 14.0152 98.5586 12.6599 100.298 12.6599C102.037 12.6599 103.341 14.0152 103.341 16.0098C103.341 18.0043 102.037 19.3596 100.298 19.3596Z" fill="white"/>
<path d="M116.029 15.3449V22.4025H119.738V14.5011C119.738 11.0746 117.744 9.36133 115.084 9.36133C113.472 9.36133 112.117 10.1285 111.349 11.4838V9.61704H107.717V22.4025H111.425V15.3449C111.425 13.4272 112.27 12.4299 113.728 12.4299C115.186 12.4299 116.029 13.4272 116.029 15.3449Z" fill="white"/>
<path d="M122.602 7.39193C123.906 7.39193 124.828 6.44581 124.828 5.24397C124.828 4.04213 123.906 3.12158 122.602 3.12158C121.348 3.12158 120.403 4.04213 120.403 5.24397C120.403 6.44581 121.348 7.39193 122.602 7.39193ZM124.469 22.4021V9.61661H120.76V22.4021H124.469Z" fill="white"/>
<path d="M136.353 22.4022V19.3848H129.243L135.842 13.4012V9.6167H125.739V12.6341H132.21L125.611 18.6177V22.4022H136.353Z" fill="white"/>
<path d="M149.365 17.0326C149.391 16.7002 149.416 16.3678 149.416 16.0098C149.416 12.0975 146.705 9.36133 142.945 9.36133C139.185 9.36133 136.474 12.0975 136.474 16.0098C136.474 19.9222 139.185 22.6583 142.945 22.6583C146.091 22.6583 148.317 21.1751 149.109 18.3623H145.35C144.991 19.2062 144.224 19.6409 143.047 19.6409C141.359 19.6409 140.31 18.7203 140.03 17.0326H149.365ZM142.945 12.4043C144.505 12.4043 145.528 13.2481 145.836 14.8591H140.055C140.362 13.2481 141.359 12.4043 142.945 12.4043Z" fill="white"/>
<path fill-rule="evenodd" clip-rule="evenodd" d="M0.285522 5.26174C0.285522 2.90076 2.19947 0.986816 4.56045 0.986816H22.2301C24.5911 0.986816 26.5051 2.90076 26.5051 5.26174V22.9314C26.5051 25.2924 24.591 27.2063 22.2301 27.2063H4.56045C2.19947 27.2063 0.285522 25.2924 0.285522 22.9314V5.26174ZM5.03543 5.73673V22.4565H21.7551V5.73673H5.03543Z" fill="white"/>
<path d="M157.009 22.2762H159.044V14.5596L162.498 19.2853H162.737L166.177 14.7092V22.2762H168.225V11.135H166.281L162.662 16.1598L158.953 11.135H157.009V22.2762ZM171.763 22.4556C172.82 22.4556 173.668 22.1067 174.306 21.4089V22.2762H176.161V16.8626C176.161 16.2943 176.016 15.7909 175.726 15.3522C175.438 14.9135 175.039 14.5745 174.531 14.3353C174.031 14.0861 173.448 13.9614 172.781 13.9614C171.963 13.9614 171.236 14.1558 170.597 14.5447C169.959 14.9335 169.52 15.4469 169.282 16.085L170.881 16.8626C171.031 16.4937 171.265 16.1997 171.584 15.9804C171.903 15.751 172.277 15.6364 172.706 15.6364C173.155 15.6364 173.513 15.756 173.782 15.9952C174.062 16.2246 174.202 16.5137 174.202 16.8626V17.1318L171.778 17.5207C170.822 17.6801 170.114 17.9842 169.655 18.4329C169.196 18.8815 168.968 19.4448 168.968 20.1227C168.968 20.8406 169.222 21.4089 169.73 21.8275C170.238 22.2463 170.916 22.4556 171.763 22.4556ZM171.001 20.048C171.001 19.4797 171.385 19.1208 172.152 18.9712L174.202 18.6273V18.9563C174.202 19.5146 174.007 19.9881 173.618 20.377C173.24 20.7658 172.74 20.9602 172.123 20.9602C171.794 20.9602 171.524 20.8804 171.315 20.7209C171.106 20.5514 171.001 20.3271 171.001 20.048ZM177.074 22.2762H179.032V17.7449C179.032 17.1269 179.203 16.6482 179.542 16.3093C179.89 15.9604 180.339 15.7859 180.887 15.7859H181.59V14.0511H181.111C180.613 14.0511 180.175 14.1409 179.796 14.3204C179.416 14.4998 179.123 14.8238 178.913 15.2924V14.1409H177.074V22.2762ZM181.769 22.2762H183.729V19.7937L184.776 18.6571L187.064 22.2762H189.307L186.241 17.416L189.247 14.1409H186.81L183.729 17.3711V10.9556H181.769V22.2762ZM193.216 22.4556C194.043 22.4556 194.766 22.2712 195.384 21.9024C196.012 21.5235 196.451 21.0449 196.7 20.4667L195.115 19.689C194.936 19.9982 194.686 20.2523 194.368 20.4518C194.059 20.6411 193.679 20.7359 193.23 20.7359C192.642 20.7359 192.149 20.5564 191.75 20.1975C191.351 19.8386 191.122 19.3601 191.063 18.7618H196.924C196.965 18.6522 196.989 18.5275 196.999 18.388C197.019 18.2385 197.03 18.0889 197.03 17.9393C197.03 17.2116 196.875 16.5486 196.566 15.9504C196.257 15.3522 195.808 14.8736 195.22 14.5148C194.632 14.1459 193.914 13.9614 193.066 13.9614C192.309 13.9614 191.62 14.1459 191.003 14.5148C190.394 14.8837 189.911 15.3871 189.552 16.0252C189.203 16.6533 189.028 17.3761 189.028 18.1936C189.028 18.9812 189.203 19.6991 189.552 20.3471C189.901 20.9951 190.389 21.5085 191.018 21.8874C191.646 22.2663 192.379 22.4556 193.216 22.4556ZM193.066 15.5766C193.585 15.5766 194.013 15.736 194.352 16.0551C194.702 16.3641 194.896 16.7679 194.936 17.2664H191.107C191.216 16.728 191.446 16.3143 191.796 16.0252C192.154 15.7261 192.577 15.5766 193.066 15.5766ZM201.326 22.3659C201.655 22.3659 201.979 22.341 202.298 22.2912V20.6012C202.108 20.6312 201.934 20.6462 201.774 20.6462C201.296 20.6462 200.947 20.5364 200.727 20.3171C200.509 20.0978 200.398 19.7838 200.398 19.375V15.8905H202.267V14.1409H200.398V12.2866H198.44V12.9147C198.44 13.3134 198.33 13.6175 198.111 13.8269C197.891 14.0363 197.582 14.1409 197.183 14.1409H197.034V15.8905H198.44V19.4797C198.44 20.387 198.689 21.0948 199.187 21.6033C199.696 22.1117 200.408 22.3659 201.326 22.3659ZM202.897 25.2671H204.857V21.4986C205.155 21.8076 205.52 22.0469 205.948 22.2164C206.376 22.3759 206.84 22.4556 207.339 22.4556C208.126 22.4556 208.83 22.2712 209.447 21.9024C210.065 21.5235 210.554 21.0151 210.913 20.377C211.272 19.7289 211.451 19.0062 211.451 18.2086C211.451 17.411 211.272 16.6932 210.913 16.0551C210.554 15.4071 210.065 14.8985 209.447 14.5297C208.83 14.1509 208.131 13.9614 207.354 13.9614C206.796 13.9614 206.292 14.0612 205.844 14.2605C205.395 14.4599 205.026 14.7391 204.737 15.098V14.1409H202.897V25.2671ZM207.115 20.6611C206.686 20.6611 206.297 20.5564 205.948 20.3471C205.609 20.1377 205.34 19.8486 205.14 19.4797C204.951 19.1108 204.857 18.6871 204.857 18.2086C204.857 17.73 204.951 17.3063 205.14 16.9374C205.34 16.5685 205.609 16.2794 205.948 16.0701C206.297 15.8607 206.686 15.756 207.115 15.756C207.563 15.756 207.957 15.8656 208.296 16.085C208.645 16.2943 208.919 16.5834 209.118 16.9524C209.318 17.3213 209.417 17.74 209.417 18.2086C209.417 18.6771 209.318 19.1008 209.118 19.4797C208.919 19.8486 208.645 20.1377 208.296 20.3471C207.957 20.5564 207.563 20.6611 207.115 20.6611ZM212.048 22.2762H214.007V10.9556H212.048V22.2762ZM217.386 22.4556C218.443 22.4556 219.29 22.1067 219.928 21.4089V22.2762H221.782V16.8626C221.782 16.2943 221.638 15.7909 221.349 15.3522C221.059 14.9135 220.66 14.5745 220.152 14.3353C219.654 14.0861 219.071 13.9614 218.402 13.9614C217.585 13.9614 216.857 14.1558 216.219 14.5447C215.581 14.9335 215.143 15.4469 214.903 16.085L216.504 16.8626C216.653 16.4937 216.888 16.1997 217.207 15.9804C217.526 15.751 217.899 15.6364 218.328 15.6364C218.776 15.6364 219.136 15.756 219.405 15.9952C219.683 16.2246 219.823 16.5137 219.823 16.8626V17.1318L217.401 17.5207C216.443 17.6801 215.735 17.9842 215.277 18.4329C214.819 18.8815 214.589 19.4448 214.589 20.1227C214.589 20.8406 214.843 21.4089 215.352 21.8275C215.86 22.2463 216.538 22.4556 217.386 22.4556ZM216.623 20.048C216.623 19.4797 217.007 19.1208 217.775 18.9712L219.823 18.6273V18.9563C219.823 19.5146 219.629 19.9881 219.24 20.377C218.861 20.7658 218.363 20.9602 217.744 20.9602C217.415 20.9602 217.147 20.8804 216.937 20.7209C216.728 20.5514 216.623 20.3271 216.623 20.048ZM226.614 22.4556C227.203 22.4556 227.745 22.356 228.244 22.1565C228.743 21.9472 229.171 21.6631 229.53 21.3042C229.889 20.9353 230.148 20.5216 230.308 20.063L228.588 19.2853C228.429 19.7139 228.175 20.0529 227.825 20.3022C227.486 20.5415 227.082 20.6611 226.614 20.6611C226.185 20.6611 225.801 20.5564 225.462 20.3471C225.134 20.1377 224.875 19.8486 224.684 19.4797C224.495 19.1008 224.401 18.6771 224.401 18.2086C224.401 17.73 224.495 17.3063 224.684 16.9374C224.875 16.5685 225.134 16.2794 225.462 16.0701C225.801 15.8607 226.185 15.756 226.614 15.756C227.082 15.756 227.486 15.8806 227.825 16.1298C228.175 16.3791 228.429 16.7081 228.588 17.1168L230.308 16.3692C230.138 15.8905 229.874 15.4719 229.515 15.1129C229.156 14.744 228.727 14.4599 228.229 14.2605C227.73 14.0612 227.192 13.9614 226.614 13.9614C225.806 13.9614 225.078 14.1459 224.43 14.5148C223.792 14.8837 223.289 15.3871 222.92 16.0252C222.551 16.6632 222.367 17.3861 222.367 18.1936C222.367 19.0011 222.551 19.7289 222.92 20.377C223.289 21.0151 223.792 21.5235 224.43 21.9024C225.078 22.2712 225.806 22.4556 226.614 22.4556ZM234.755 22.4556C235.582 22.4556 236.305 22.2712 236.924 21.9024C237.552 21.5235 237.99 21.0449 238.239 20.4667L236.655 19.689C236.474 19.9982 236.225 20.2523 235.906 20.4518C235.598 20.6411 235.219 20.7359 234.77 20.7359C234.182 20.7359 233.688 20.5564 233.29 20.1975C232.891 19.8386 232.661 19.3601 232.601 18.7618H238.464C238.504 18.6522 238.529 18.5275 238.539 18.388C238.558 18.2385 238.568 18.0889 238.568 17.9393C238.568 17.2116 238.415 16.5486 238.105 15.9504C237.796 15.3522 237.347 14.8736 236.759 14.5148C236.171 14.1459 235.453 13.9614 234.605 13.9614C233.848 13.9614 233.16 14.1459 232.542 14.5148C231.934 14.8837 231.45 15.3871 231.092 16.0252C230.742 16.6533 230.568 17.3761 230.568 18.1936C230.568 18.9812 230.742 19.6991 231.092 20.3471C231.44 20.9951 231.929 21.5085 232.557 21.8874C233.185 22.2663 233.918 22.4556 234.755 22.4556ZM234.605 15.5766C235.124 15.5766 235.553 15.736 235.891 16.0551C236.241 16.3641 236.435 16.7679 236.474 17.2664H232.647C232.756 16.728 232.985 16.3143 233.335 16.0252C233.693 15.7261 234.117 15.5766 234.605 15.5766Z" fill="white"/>
</g>
<defs>
<clipPath id="clip0_203_250">
<rect width="242" height="27.3389" fill="white"/>
</clipPath>
</defs>
</svg>
