<svg width="320" height="150" viewBox="0 0 320 150" fill="none" xmlns="http://www.w3.org/2000/svg">
<g clip-path="url(#clip0_114_235)">
<rect width="320" height="149.333" fill="#F0F0F0"/>
<path fill-rule="evenodd" clip-rule="evenodd" d="M-58.1316 118.976C-59.1635 106.322 -49.7705 95.1871 -37.1519 94.1066L57.2872 86.0202C69.9058 84.9397 80.9718 94.3224 82.0037 106.977L89.7262 201.684C90.758 214.339 81.3651 225.473 68.7464 226.554L-25.6926 234.64C-38.3113 235.721 -49.3773 226.338 -50.4091 213.683L-58.1316 118.976ZM-32.5372 119.348L-25.2299 208.964L64.1317 201.312L56.8244 111.697L-32.5372 119.348Z" fill="#CACACA"/>
<path fill-rule="evenodd" clip-rule="evenodd" d="M312.352 -15.1354C320.343 -25.0018 334.781 -26.5527 344.6 -18.5996L418.09 40.9219C427.909 48.8751 429.392 63.3206 421.4 73.1869L361.595 147.027C353.604 156.894 339.165 158.445 329.346 150.491L255.856 90.9699C246.037 83.0168 244.555 68.5713 252.546 58.7049L312.352 -15.1354ZM330.499 2.84998L273.909 72.7204L343.447 129.042L400.038 59.1715L330.499 2.84998Z" fill="#CACACA"/>
<path fill-rule="evenodd" clip-rule="evenodd" d="M242.024 135.466C253.83 140.148 259.558 153.532 254.82 165.36L219.355 253.881C214.617 265.709 201.205 271.502 189.399 266.82L101.046 231.777C89.2408 227.094 83.5121 213.71 88.2507 201.882L123.715 113.361C128.454 101.533 141.866 95.7403 153.671 100.423L242.024 135.466ZM230.116 158.32L146.513 125.161L112.955 208.923L196.558 242.082L230.116 158.32Z" fill="#CACACA"/>
<path fill-rule="evenodd" clip-rule="evenodd" d="M141.613 -92.8002C152.008 -100.09 166.303 -97.598 173.541 -87.2337L227.711 -9.66627C234.949 0.698088 232.39 15.0098 221.995 22.2999L144.198 76.8591C133.803 84.1491 119.508 81.6569 112.27 71.2926L58.0996 -6.27485C50.8615 -16.6392 53.4207 -30.9509 63.8158 -38.241L141.613 -92.8002ZM154.084 -70.4821L80.4691 -18.8562L131.727 54.541L205.342 2.91505L154.084 -70.4821Z" fill="#CACACA"/>
</g>
<defs>
<clipPath id="clip0_114_235">
<rect width="320" height="149.333" fill="white"/>
</clipPath>
</defs>
</svg>
