<svg width="1380" height="644" viewBox="0 0 1380 644" fill="none" xmlns="http://www.w3.org/2000/svg">
<g clip-path="url(#clip0_54_32)">
<rect width="1380" height="644" fill="#1BAAA0"/>
<path fill-rule="evenodd" clip-rule="evenodd" d="M-817.11 476.465C-825.58 372.594 -748.481 281.201 -644.905 272.332L130.266 205.958C233.842 197.089 324.673 274.103 333.143 377.974L396.53 1155.35C405 1259.22 327.901 1350.61 224.325 1359.48L-550.845 1425.85C-654.422 1434.72 -745.253 1357.71 -753.722 1253.84L-817.11 476.465ZM-607.027 479.519L-547.047 1215.1L186.447 1152.29L126.468 416.714L-607.027 479.519Z" fill="#189E95"/>
<path fill-rule="evenodd" clip-rule="evenodd" d="M1637.45 -375.547C1703.13 -456.641 1821.8 -469.389 1902.51 -404.02L2506.54 85.2045C2587.25 150.573 2599.43 269.305 2533.75 350.4L2042.19 957.314C1976.51 1038.41 1857.84 1051.16 1777.13 985.788L1173.1 496.563C1092.39 431.194 1080.21 312.462 1145.89 231.368L1637.45 -375.547ZM1786.61 -227.72L1321.47 346.565L1893.03 809.488L2358.16 235.202L1786.61 -227.72Z" fill="#189E95"/>
<path fill-rule="evenodd" clip-rule="evenodd" d="M1664.64 880.216C1761.23 918.527 1808.11 1028.04 1769.34 1124.82L1479.16 1849.11C1440.39 1945.89 1330.65 1993.28 1234.06 1954.97L511.141 1668.24C414.547 1629.93 367.673 1520.42 406.445 1423.64L696.62 699.35C735.393 602.572 845.129 555.176 941.723 593.488L1664.64 880.216ZM1567.2 1067.21L883.152 795.898L608.578 1481.25L1292.63 1752.56L1567.2 1067.21Z" fill="#189E95"/>
<path fill-rule="evenodd" clip-rule="evenodd" d="M696.628 -1090.28C782.031 -1150.17 899.47 -1129.7 958.936 -1044.55L1403.98 -407.278C1463.45 -322.128 1442.42 -204.547 1357.02 -144.654L717.862 303.587C632.459 363.48 515.02 343.004 455.555 257.854L10.5079 -379.415C-48.958 -464.565 -27.9321 -582.146 57.4703 -642.039L696.628 -1090.28ZM799.083 -906.921L194.288 -482.779L615.408 120.228L1220.2 -303.914L799.083 -906.921Z" fill="#189E95"/>
</g>
<defs>
<clipPath id="clip0_54_32">
<rect width="1380" height="644" fill="white"/>
</clipPath>
</defs>
</svg>
